<mxfile host="Electron" modified="2023-12-05T17:12:48.623Z" agent="Mozilla/5.0 (Windows NT 10.0; Win64; x64) AppleWebKit/537.36 (KHTML, like Gecko) draw.io/22.1.2 Chrome/114.0.5735.289 Electron/25.9.4 Safari/537.36" etag="2Xga8bbRE76R1V7lGu0T" version="22.1.2" type="device">
  <diagram name="Page-1" id="TEUZCjjUZsXh7NEo3a6k">
    <mxGraphModel dx="2268" dy="828" grid="1" gridSize="10" guides="1" tooltips="1" connect="1" arrows="1" fold="1" page="1" pageScale="1" pageWidth="850" pageHeight="1100" math="0" shadow="0">
      <root>
        <mxCell id="0" />
        <mxCell id="1" parent="0" />
        <mxCell id="WBqxEGytF3wch-Ofr0nb-56" style="edgeStyle=orthogonalEdgeStyle;rounded=0;orthogonalLoop=1;jettySize=auto;html=1;" parent="1" source="WBqxEGytF3wch-Ofr0nb-1" target="WBqxEGytF3wch-Ofr0nb-54" edge="1">
          <mxGeometry relative="1" as="geometry" />
        </mxCell>
        <mxCell id="WBqxEGytF3wch-Ofr0nb-1" value="Categories" style="rounded=0;whiteSpace=wrap;html=1;" parent="1" vertex="1">
          <mxGeometry x="110" y="400" width="120" height="60" as="geometry" />
        </mxCell>
        <mxCell id="WBqxEGytF3wch-Ofr0nb-2" value="&lt;u&gt;CategoryId&lt;/u&gt;" style="ellipse;whiteSpace=wrap;html=1;" parent="1" vertex="1">
          <mxGeometry x="30" y="250" width="120" height="80" as="geometry" />
        </mxCell>
        <mxCell id="WBqxEGytF3wch-Ofr0nb-3" value="Products" style="rounded=0;whiteSpace=wrap;html=1;" parent="1" vertex="1">
          <mxGeometry x="410" y="400" width="120" height="60" as="geometry" />
        </mxCell>
        <mxCell id="WBqxEGytF3wch-Ofr0nb-4" value="&lt;u&gt;ProductId&lt;/u&gt;" style="ellipse;whiteSpace=wrap;html=1;" parent="1" vertex="1">
          <mxGeometry x="380" y="250" width="120" height="80" as="geometry" />
        </mxCell>
        <mxCell id="WBqxEGytF3wch-Ofr0nb-5" value="ProductName" style="ellipse;whiteSpace=wrap;html=1;" parent="1" vertex="1">
          <mxGeometry x="530" y="250" width="120" height="80" as="geometry" />
        </mxCell>
        <mxCell id="WBqxEGytF3wch-Ofr0nb-6" value="Quantity" style="ellipse;whiteSpace=wrap;html=1;" parent="1" vertex="1">
          <mxGeometry x="660" y="270" width="120" height="80" as="geometry" />
        </mxCell>
        <mxCell id="WBqxEGytF3wch-Ofr0nb-7" value="Price" style="ellipse;whiteSpace=wrap;html=1;" parent="1" vertex="1">
          <mxGeometry x="670" y="360" width="120" height="80" as="geometry" />
        </mxCell>
        <mxCell id="WBqxEGytF3wch-Ofr0nb-8" value="CategoryName" style="ellipse;whiteSpace=wrap;html=1;" parent="1" vertex="1">
          <mxGeometry x="180" y="250" width="120" height="80" as="geometry" />
        </mxCell>
        <mxCell id="WBqxEGytF3wch-Ofr0nb-59" style="edgeStyle=orthogonalEdgeStyle;rounded=0;orthogonalLoop=1;jettySize=auto;html=1;" parent="1" source="WBqxEGytF3wch-Ofr0nb-9" target="WBqxEGytF3wch-Ofr0nb-58" edge="1">
          <mxGeometry relative="1" as="geometry" />
        </mxCell>
        <mxCell id="WBqxEGytF3wch-Ofr0nb-9" value="Agency" style="rounded=0;whiteSpace=wrap;html=1;" parent="1" vertex="1">
          <mxGeometry x="110" y="620" width="120" height="70" as="geometry" />
        </mxCell>
        <mxCell id="WBqxEGytF3wch-Ofr0nb-10" value="&lt;u&gt;AgencyId&lt;/u&gt;" style="ellipse;whiteSpace=wrap;html=1;" parent="1" vertex="1">
          <mxGeometry x="-110" y="750" width="120" height="80" as="geometry" />
        </mxCell>
        <mxCell id="WBqxEGytF3wch-Ofr0nb-11" value="AgencyName" style="ellipse;whiteSpace=wrap;html=1;" parent="1" vertex="1">
          <mxGeometry x="40" y="750" width="120" height="80" as="geometry" />
        </mxCell>
        <mxCell id="WBqxEGytF3wch-Ofr0nb-12" value="Adress" style="ellipse;whiteSpace=wrap;html=1;" parent="1" vertex="1">
          <mxGeometry x="-110" y="610" width="120" height="80" as="geometry" />
        </mxCell>
        <mxCell id="WBqxEGytF3wch-Ofr0nb-13" value="Phone" style="ellipse;whiteSpace=wrap;html=1;" parent="1" vertex="1">
          <mxGeometry x="-110" y="500" width="120" height="80" as="geometry" />
        </mxCell>
        <mxCell id="WBqxEGytF3wch-Ofr0nb-15" value="AmountOwed" style="ellipse;whiteSpace=wrap;html=1;" parent="1" vertex="1">
          <mxGeometry x="180" y="750" width="120" height="80" as="geometry" />
        </mxCell>
        <mxCell id="WBqxEGytF3wch-Ofr0nb-16" value="" style="endArrow=none;html=1;rounded=0;entryX=0;entryY=0;entryDx=0;entryDy=0;exitX=1;exitY=0.5;exitDx=0;exitDy=0;" parent="1" source="WBqxEGytF3wch-Ofr0nb-13" target="WBqxEGytF3wch-Ofr0nb-9" edge="1">
          <mxGeometry width="50" height="50" relative="1" as="geometry">
            <mxPoint x="50" y="560" as="sourcePoint" />
            <mxPoint x="100" y="510" as="targetPoint" />
          </mxGeometry>
        </mxCell>
        <mxCell id="WBqxEGytF3wch-Ofr0nb-17" value="" style="endArrow=none;html=1;rounded=0;entryX=0;entryY=0.5;entryDx=0;entryDy=0;exitX=1;exitY=0.5;exitDx=0;exitDy=0;" parent="1" source="WBqxEGytF3wch-Ofr0nb-12" target="WBqxEGytF3wch-Ofr0nb-9" edge="1">
          <mxGeometry width="50" height="50" relative="1" as="geometry">
            <mxPoint x="30" y="700" as="sourcePoint" />
            <mxPoint x="80" y="650" as="targetPoint" />
          </mxGeometry>
        </mxCell>
        <mxCell id="WBqxEGytF3wch-Ofr0nb-18" value="" style="endArrow=none;html=1;rounded=0;exitX=1;exitY=0;exitDx=0;exitDy=0;entryX=0;entryY=1;entryDx=0;entryDy=0;" parent="1" source="WBqxEGytF3wch-Ofr0nb-10" target="WBqxEGytF3wch-Ofr0nb-9" edge="1">
          <mxGeometry width="50" height="50" relative="1" as="geometry">
            <mxPoint x="10" y="730" as="sourcePoint" />
            <mxPoint x="100" y="690" as="targetPoint" />
          </mxGeometry>
        </mxCell>
        <mxCell id="WBqxEGytF3wch-Ofr0nb-19" value="" style="endArrow=none;html=1;rounded=0;entryX=0.5;entryY=1;entryDx=0;entryDy=0;exitX=0.5;exitY=0;exitDx=0;exitDy=0;" parent="1" source="WBqxEGytF3wch-Ofr0nb-11" target="WBqxEGytF3wch-Ofr0nb-9" edge="1">
          <mxGeometry width="50" height="50" relative="1" as="geometry">
            <mxPoint x="100" y="760" as="sourcePoint" />
            <mxPoint x="150" y="710" as="targetPoint" />
          </mxGeometry>
        </mxCell>
        <mxCell id="WBqxEGytF3wch-Ofr0nb-20" value="" style="endArrow=none;html=1;rounded=0;entryX=0.5;entryY=0;entryDx=0;entryDy=0;exitX=0.5;exitY=1;exitDx=0;exitDy=0;" parent="1" source="WBqxEGytF3wch-Ofr0nb-9" target="WBqxEGytF3wch-Ofr0nb-15" edge="1">
          <mxGeometry width="50" height="50" relative="1" as="geometry">
            <mxPoint x="190" y="750" as="sourcePoint" />
            <mxPoint x="240" y="700" as="targetPoint" />
          </mxGeometry>
        </mxCell>
        <mxCell id="WBqxEGytF3wch-Ofr0nb-21" value="" style="endArrow=none;html=1;rounded=0;exitX=0.5;exitY=0;exitDx=0;exitDy=0;entryX=0.5;entryY=1;entryDx=0;entryDy=0;" parent="1" source="WBqxEGytF3wch-Ofr0nb-1" target="WBqxEGytF3wch-Ofr0nb-8" edge="1">
          <mxGeometry width="50" height="50" relative="1" as="geometry">
            <mxPoint x="70" y="430" as="sourcePoint" />
            <mxPoint x="240" y="330" as="targetPoint" />
          </mxGeometry>
        </mxCell>
        <mxCell id="WBqxEGytF3wch-Ofr0nb-22" value="" style="endArrow=none;html=1;rounded=0;entryX=0.5;entryY=0;entryDx=0;entryDy=0;exitX=0.5;exitY=1;exitDx=0;exitDy=0;" parent="1" source="WBqxEGytF3wch-Ofr0nb-2" target="WBqxEGytF3wch-Ofr0nb-1" edge="1">
          <mxGeometry width="50" height="50" relative="1" as="geometry">
            <mxPoint x="10" y="410" as="sourcePoint" />
            <mxPoint x="60" y="360" as="targetPoint" />
          </mxGeometry>
        </mxCell>
        <mxCell id="WBqxEGytF3wch-Ofr0nb-23" value="" style="endArrow=none;html=1;rounded=0;entryX=0.5;entryY=1;entryDx=0;entryDy=0;exitX=0.5;exitY=0;exitDx=0;exitDy=0;" parent="1" source="WBqxEGytF3wch-Ofr0nb-3" target="WBqxEGytF3wch-Ofr0nb-4" edge="1">
          <mxGeometry width="50" height="50" relative="1" as="geometry">
            <mxPoint x="380" y="400" as="sourcePoint" />
            <mxPoint x="430" y="350" as="targetPoint" />
          </mxGeometry>
        </mxCell>
        <mxCell id="WBqxEGytF3wch-Ofr0nb-24" value="" style="endArrow=none;html=1;rounded=0;entryX=0;entryY=1;entryDx=0;entryDy=0;exitX=0.5;exitY=0;exitDx=0;exitDy=0;" parent="1" source="WBqxEGytF3wch-Ofr0nb-3" target="WBqxEGytF3wch-Ofr0nb-5" edge="1">
          <mxGeometry width="50" height="50" relative="1" as="geometry">
            <mxPoint x="510" y="380" as="sourcePoint" />
            <mxPoint x="560" y="330" as="targetPoint" />
          </mxGeometry>
        </mxCell>
        <mxCell id="WBqxEGytF3wch-Ofr0nb-25" value="" style="endArrow=none;html=1;rounded=0;entryX=0;entryY=0.5;entryDx=0;entryDy=0;exitX=1;exitY=0.5;exitDx=0;exitDy=0;" parent="1" source="WBqxEGytF3wch-Ofr0nb-3" target="WBqxEGytF3wch-Ofr0nb-6" edge="1">
          <mxGeometry width="50" height="50" relative="1" as="geometry">
            <mxPoint x="550" y="480" as="sourcePoint" />
            <mxPoint x="600" y="430" as="targetPoint" />
          </mxGeometry>
        </mxCell>
        <mxCell id="WBqxEGytF3wch-Ofr0nb-26" value="" style="endArrow=none;html=1;rounded=0;exitX=1;exitY=0.5;exitDx=0;exitDy=0;entryX=0;entryY=0.5;entryDx=0;entryDy=0;" parent="1" source="WBqxEGytF3wch-Ofr0nb-3" target="WBqxEGytF3wch-Ofr0nb-7" edge="1">
          <mxGeometry width="50" height="50" relative="1" as="geometry">
            <mxPoint x="410" y="530" as="sourcePoint" />
            <mxPoint x="620" y="470" as="targetPoint" />
          </mxGeometry>
        </mxCell>
        <mxCell id="WBqxEGytF3wch-Ofr0nb-70" style="edgeStyle=orthogonalEdgeStyle;rounded=0;orthogonalLoop=1;jettySize=auto;html=1;entryX=0.5;entryY=1;entryDx=0;entryDy=0;" parent="1" source="WBqxEGytF3wch-Ofr0nb-28" target="WBqxEGytF3wch-Ofr0nb-63" edge="1">
          <mxGeometry relative="1" as="geometry" />
        </mxCell>
        <mxCell id="WBqxEGytF3wch-Ofr0nb-28" value="Bill" style="rounded=0;whiteSpace=wrap;html=1;" parent="1" vertex="1">
          <mxGeometry x="410" y="625" width="120" height="60" as="geometry" />
        </mxCell>
        <mxCell id="WBqxEGytF3wch-Ofr0nb-29" value="ExportDate" style="ellipse;whiteSpace=wrap;html=1;" parent="1" vertex="1">
          <mxGeometry x="670" y="750" width="120" height="60" as="geometry" />
        </mxCell>
        <mxCell id="WBqxEGytF3wch-Ofr0nb-30" value="&lt;u&gt;Bill_Id&lt;/u&gt;" style="ellipse;whiteSpace=wrap;html=1;" parent="1" vertex="1">
          <mxGeometry x="320" y="750" width="120" height="60" as="geometry" />
        </mxCell>
        <mxCell id="WBqxEGytF3wch-Ofr0nb-31" value="ProductName" style="ellipse;whiteSpace=wrap;html=1;" parent="1" vertex="1">
          <mxGeometry x="440" y="750" width="120" height="60" as="geometry" />
        </mxCell>
        <mxCell id="WBqxEGytF3wch-Ofr0nb-32" value="Quantity" style="ellipse;whiteSpace=wrap;html=1;" parent="1" vertex="1">
          <mxGeometry x="560" y="750" width="110" height="60" as="geometry" />
        </mxCell>
        <mxCell id="WBqxEGytF3wch-Ofr0nb-34" value="Price" style="ellipse;whiteSpace=wrap;html=1;" parent="1" vertex="1">
          <mxGeometry x="670" y="690" width="120" height="50" as="geometry" />
        </mxCell>
        <mxCell id="WBqxEGytF3wch-Ofr0nb-35" value="Total" style="ellipse;whiteSpace=wrap;html=1;dashed=1;dashPattern=8 8;" parent="1" vertex="1">
          <mxGeometry x="680" y="625" width="120" height="50" as="geometry" />
        </mxCell>
        <mxCell id="WBqxEGytF3wch-Ofr0nb-36" value="SignatureUnitHeads" style="ellipse;whiteSpace=wrap;html=1;" parent="1" vertex="1">
          <mxGeometry x="680" y="450" width="120" height="50" as="geometry" />
        </mxCell>
        <mxCell id="WBqxEGytF3wch-Ofr0nb-38" value="SignatureReceiver" style="ellipse;whiteSpace=wrap;html=1;" parent="1" vertex="1">
          <mxGeometry x="680" y="500" width="120" height="50" as="geometry" />
        </mxCell>
        <mxCell id="WBqxEGytF3wch-Ofr0nb-39" value="SignatureWriter" style="ellipse;whiteSpace=wrap;html=1;" parent="1" vertex="1">
          <mxGeometry x="680" y="560" width="120" height="50" as="geometry" />
        </mxCell>
        <mxCell id="WBqxEGytF3wch-Ofr0nb-40" value="ReleaseDate" style="ellipse;whiteSpace=wrap;html=1;" parent="1" vertex="1">
          <mxGeometry x="780" y="590" width="120" height="50" as="geometry" />
        </mxCell>
        <mxCell id="WBqxEGytF3wch-Ofr0nb-41" value="NumberBill" style="ellipse;whiteSpace=wrap;html=1;" parent="1" vertex="1">
          <mxGeometry x="790" y="660" width="120" height="50" as="geometry" />
        </mxCell>
        <mxCell id="WBqxEGytF3wch-Ofr0nb-42" value="" style="endArrow=none;html=1;rounded=0;entryX=0;entryY=0.5;entryDx=0;entryDy=0;exitX=1;exitY=0.5;exitDx=0;exitDy=0;" parent="1" source="WBqxEGytF3wch-Ofr0nb-28" target="WBqxEGytF3wch-Ofr0nb-40" edge="1">
          <mxGeometry width="50" height="50" relative="1" as="geometry">
            <mxPoint x="530" y="660" as="sourcePoint" />
            <mxPoint x="580" y="610" as="targetPoint" />
          </mxGeometry>
        </mxCell>
        <mxCell id="WBqxEGytF3wch-Ofr0nb-43" value="" style="endArrow=none;html=1;rounded=0;entryX=0;entryY=0.5;entryDx=0;entryDy=0;exitX=1;exitY=0.5;exitDx=0;exitDy=0;" parent="1" source="WBqxEGytF3wch-Ofr0nb-28" target="WBqxEGytF3wch-Ofr0nb-35" edge="1">
          <mxGeometry width="50" height="50" relative="1" as="geometry">
            <mxPoint x="600" y="710" as="sourcePoint" />
            <mxPoint x="650" y="660" as="targetPoint" />
          </mxGeometry>
        </mxCell>
        <mxCell id="WBqxEGytF3wch-Ofr0nb-44" value="" style="endArrow=none;html=1;rounded=0;entryX=0;entryY=0.5;entryDx=0;entryDy=0;exitX=1;exitY=0.25;exitDx=0;exitDy=0;" parent="1" source="WBqxEGytF3wch-Ofr0nb-28" target="WBqxEGytF3wch-Ofr0nb-38" edge="1">
          <mxGeometry width="50" height="50" relative="1" as="geometry">
            <mxPoint x="530" y="650" as="sourcePoint" />
            <mxPoint x="580" y="600" as="targetPoint" />
          </mxGeometry>
        </mxCell>
        <mxCell id="WBqxEGytF3wch-Ofr0nb-45" value="" style="endArrow=none;html=1;rounded=0;entryX=0;entryY=0.5;entryDx=0;entryDy=0;exitX=1;exitY=0;exitDx=0;exitDy=0;" parent="1" source="WBqxEGytF3wch-Ofr0nb-28" target="WBqxEGytF3wch-Ofr0nb-36" edge="1">
          <mxGeometry width="50" height="50" relative="1" as="geometry">
            <mxPoint x="530" y="610" as="sourcePoint" />
            <mxPoint x="580" y="560" as="targetPoint" />
          </mxGeometry>
        </mxCell>
        <mxCell id="WBqxEGytF3wch-Ofr0nb-46" value="" style="endArrow=none;html=1;rounded=0;entryX=0;entryY=0.5;entryDx=0;entryDy=0;exitX=1;exitY=0.25;exitDx=0;exitDy=0;" parent="1" source="WBqxEGytF3wch-Ofr0nb-28" target="WBqxEGytF3wch-Ofr0nb-39" edge="1">
          <mxGeometry width="50" height="50" relative="1" as="geometry">
            <mxPoint x="560" y="710" as="sourcePoint" />
            <mxPoint x="610" y="660" as="targetPoint" />
          </mxGeometry>
        </mxCell>
        <mxCell id="WBqxEGytF3wch-Ofr0nb-48" value="" style="endArrow=none;html=1;rounded=0;entryX=0;entryY=0.5;entryDx=0;entryDy=0;" parent="1" target="WBqxEGytF3wch-Ofr0nb-41" edge="1">
          <mxGeometry width="50" height="50" relative="1" as="geometry">
            <mxPoint x="530" y="660" as="sourcePoint" />
            <mxPoint x="610" y="680" as="targetPoint" />
          </mxGeometry>
        </mxCell>
        <mxCell id="WBqxEGytF3wch-Ofr0nb-49" value="" style="endArrow=none;html=1;rounded=0;entryX=0;entryY=0.5;entryDx=0;entryDy=0;exitX=1;exitY=0.75;exitDx=0;exitDy=0;" parent="1" source="WBqxEGytF3wch-Ofr0nb-28" target="WBqxEGytF3wch-Ofr0nb-34" edge="1">
          <mxGeometry width="50" height="50" relative="1" as="geometry">
            <mxPoint x="560" y="730" as="sourcePoint" />
            <mxPoint x="610" y="680" as="targetPoint" />
          </mxGeometry>
        </mxCell>
        <mxCell id="WBqxEGytF3wch-Ofr0nb-50" value="" style="endArrow=none;html=1;rounded=0;entryX=0;entryY=0;entryDx=0;entryDy=0;exitX=1;exitY=0.75;exitDx=0;exitDy=0;" parent="1" source="WBqxEGytF3wch-Ofr0nb-28" target="WBqxEGytF3wch-Ofr0nb-29" edge="1">
          <mxGeometry width="50" height="50" relative="1" as="geometry">
            <mxPoint x="520" y="750" as="sourcePoint" />
            <mxPoint x="570" y="700" as="targetPoint" />
          </mxGeometry>
        </mxCell>
        <mxCell id="WBqxEGytF3wch-Ofr0nb-51" value="" style="endArrow=none;html=1;rounded=0;entryX=0.5;entryY=0;entryDx=0;entryDy=0;exitX=1;exitY=1;exitDx=0;exitDy=0;" parent="1" source="WBqxEGytF3wch-Ofr0nb-28" target="WBqxEGytF3wch-Ofr0nb-32" edge="1">
          <mxGeometry width="50" height="50" relative="1" as="geometry">
            <mxPoint x="460" y="750" as="sourcePoint" />
            <mxPoint x="510" y="700" as="targetPoint" />
          </mxGeometry>
        </mxCell>
        <mxCell id="WBqxEGytF3wch-Ofr0nb-52" value="" style="endArrow=none;html=1;rounded=0;entryX=0.5;entryY=1;entryDx=0;entryDy=0;exitX=0.5;exitY=0;exitDx=0;exitDy=0;" parent="1" source="WBqxEGytF3wch-Ofr0nb-31" target="WBqxEGytF3wch-Ofr0nb-28" edge="1">
          <mxGeometry width="50" height="50" relative="1" as="geometry">
            <mxPoint x="420" y="760" as="sourcePoint" />
            <mxPoint x="470" y="710" as="targetPoint" />
          </mxGeometry>
        </mxCell>
        <mxCell id="WBqxEGytF3wch-Ofr0nb-53" value="" style="endArrow=none;html=1;rounded=0;entryX=0.5;entryY=1;entryDx=0;entryDy=0;exitX=0.5;exitY=0;exitDx=0;exitDy=0;" parent="1" source="WBqxEGytF3wch-Ofr0nb-30" target="WBqxEGytF3wch-Ofr0nb-28" edge="1">
          <mxGeometry width="50" height="50" relative="1" as="geometry">
            <mxPoint x="400" y="750" as="sourcePoint" />
            <mxPoint x="450" y="700" as="targetPoint" />
          </mxGeometry>
        </mxCell>
        <mxCell id="WBqxEGytF3wch-Ofr0nb-57" style="edgeStyle=orthogonalEdgeStyle;rounded=0;orthogonalLoop=1;jettySize=auto;html=1;entryX=0;entryY=0.5;entryDx=0;entryDy=0;" parent="1" source="WBqxEGytF3wch-Ofr0nb-54" target="WBqxEGytF3wch-Ofr0nb-3" edge="1">
          <mxGeometry relative="1" as="geometry" />
        </mxCell>
        <mxCell id="WBqxEGytF3wch-Ofr0nb-54" value="has" style="rhombus;whiteSpace=wrap;html=1;" parent="1" vertex="1">
          <mxGeometry x="280" y="390" width="80" height="80" as="geometry" />
        </mxCell>
        <mxCell id="WBqxEGytF3wch-Ofr0nb-60" style="edgeStyle=orthogonalEdgeStyle;rounded=0;orthogonalLoop=1;jettySize=auto;html=1;entryX=0;entryY=0.5;entryDx=0;entryDy=0;" parent="1" source="WBqxEGytF3wch-Ofr0nb-58" target="WBqxEGytF3wch-Ofr0nb-28" edge="1">
          <mxGeometry relative="1" as="geometry" />
        </mxCell>
        <mxCell id="WBqxEGytF3wch-Ofr0nb-58" value="request" style="rhombus;whiteSpace=wrap;html=1;" parent="1" vertex="1">
          <mxGeometry x="280" y="615" width="80" height="80" as="geometry" />
        </mxCell>
        <mxCell id="WBqxEGytF3wch-Ofr0nb-71" style="edgeStyle=orthogonalEdgeStyle;rounded=0;orthogonalLoop=1;jettySize=auto;html=1;entryX=0.5;entryY=1;entryDx=0;entryDy=0;" parent="1" source="WBqxEGytF3wch-Ofr0nb-63" target="WBqxEGytF3wch-Ofr0nb-3" edge="1">
          <mxGeometry relative="1" as="geometry" />
        </mxCell>
        <mxCell id="WBqxEGytF3wch-Ofr0nb-63" value="export" style="rhombus;whiteSpace=wrap;html=1;" parent="1" vertex="1">
          <mxGeometry x="430" y="500" width="80" height="80" as="geometry" />
        </mxCell>
        <mxCell id="WBqxEGytF3wch-Ofr0nb-67" value="1" style="text;html=1;strokeColor=none;fillColor=none;align=center;verticalAlign=middle;whiteSpace=wrap;rounded=0;" parent="1" vertex="1">
          <mxGeometry x="210" y="400" width="60" height="30" as="geometry" />
        </mxCell>
        <mxCell id="WBqxEGytF3wch-Ofr0nb-68" value="n" style="text;html=1;strokeColor=none;fillColor=none;align=center;verticalAlign=middle;whiteSpace=wrap;rounded=0;" parent="1" vertex="1">
          <mxGeometry x="360" y="400" width="60" height="30" as="geometry" />
        </mxCell>
        <mxCell id="WBqxEGytF3wch-Ofr0nb-72" value="1" style="text;html=1;strokeColor=none;fillColor=none;align=center;verticalAlign=middle;whiteSpace=wrap;rounded=0;" parent="1" vertex="1">
          <mxGeometry x="210" y="625" width="60" height="30" as="geometry" />
        </mxCell>
        <mxCell id="WBqxEGytF3wch-Ofr0nb-73" value="n" style="text;html=1;strokeColor=none;fillColor=none;align=center;verticalAlign=middle;whiteSpace=wrap;rounded=0;" parent="1" vertex="1">
          <mxGeometry x="350" y="625" width="60" height="30" as="geometry" />
        </mxCell>
        <mxCell id="WBqxEGytF3wch-Ofr0nb-74" value="n" style="text;html=1;strokeColor=none;fillColor=none;align=center;verticalAlign=middle;whiteSpace=wrap;rounded=0;" parent="1" vertex="1">
          <mxGeometry x="460" y="600" width="60" height="30" as="geometry" />
        </mxCell>
        <mxCell id="WBqxEGytF3wch-Ofr0nb-75" value="m" style="text;html=1;strokeColor=none;fillColor=none;align=center;verticalAlign=middle;whiteSpace=wrap;rounded=0;" parent="1" vertex="1">
          <mxGeometry x="460" y="460" width="60" height="30" as="geometry" />
        </mxCell>
        <mxCell id="LL1GptSbtN2g-CZm4UUg-1" value="" style="ellipse;whiteSpace=wrap;html=1;fillStyle=hatch;" vertex="1" parent="1">
          <mxGeometry x="-110" y="620" width="120" height="60" as="geometry" />
        </mxCell>
        <mxCell id="LL1GptSbtN2g-CZm4UUg-2" value="" style="ellipse;whiteSpace=wrap;html=1;fillStyle=hatch;" vertex="1" parent="1">
          <mxGeometry x="-110" y="510" width="120" height="60" as="geometry" />
        </mxCell>
      </root>
    </mxGraphModel>
  </diagram>
</mxfile>
